<?xml version="1.0" encoding="utf-8"?>
<!-- Generator: Adobe Illustrator 24.0.1, SVG Export Plug-In . SVG Version: 6.00 Build 0)  -->
<svg version="1.1" id="Layer_1" xmlns="http://www.w3.org/2000/svg" xmlns:xlink="http://www.w3.org/1999/xlink" x="0px" y="0px"
	 viewBox="0 0 100 100" style="enable-background:new 0 0 100 100;" xml:space="preserve">
<style type="text/css">
	.st0{fill:#FFF200;}
	.st1{fill:#58595B;}
	.st2{fill:#FFFFFF;}
	.st3{fill:#FFFFFF;stroke:#000000;stroke-miterlimit:10;}
</style>
<rect x="17.01" y="7.24" class="st0" width="65.22" height="86.61"/>
<path d="M91.97,26.23h-6.23v0H13.51v0H7.27c-0.01,0-0.01,0-0.02,0H7.22v0c-3.02,0.04-5.47,3.93-5.47,8.72v1.13
	c0,4.79,2.44,8.68,5.47,8.72v0h84.22v0h0.53c3.05,0,5.52-3.91,5.52-8.72v-1.13C97.49,30.13,95.02,26.23,91.97,26.23z"/>
<path class="st1" d="M11.77,35.52c0,4.69-2.07,8.5-4.62,8.5c-2.55,0-4.62-3.8-4.62-8.5s2.07-8.5,4.62-8.5
	C9.7,27.02,11.77,30.82,11.77,35.52z"/>
<path d="M91.97,60.21h-6.23l0,0H13.51l0,0H7.27c-0.01,0-0.01,0-0.02,0H7.22v0c-3.02,0.04-5.47,3.93-5.47,8.72v1.13
	c0,4.79,2.44,8.68,5.47,8.72v0h84.22v0h0.53c3.05,0,5.52-3.91,5.52-8.73v-1.13C97.49,64.11,95.02,60.21,91.97,60.21z"/>
<path class="st1" d="M11.77,69.5c0,4.69-2.07,8.5-4.62,8.5c-2.55,0-4.62-3.8-4.62-8.5c0-4.69,2.07-8.5,4.62-8.5
	C9.7,61,11.77,64.81,11.77,69.5z"/>
<path class="st2" d="M40.5,22.27c0,0-0.01,0-0.01,0c-0.38-0.04-0.74-0.06-1.09-0.06c-0.31,0-0.62,0.02-0.91,0.06
	c-3.3,0.41-5.42,2.74-6.32,3.96h8.36h5.93C44.67,24.12,42.52,22.93,40.5,22.27z"/>
<path class="st2" d="M63.34,26.23c-1.5-2.01-3.2-3.32-4.14-3.96H40.53H40.5c2.02,0.66,4.17,1.85,5.96,3.96
	c0.25,0.29,0.48,0.59,0.71,0.92c1.76,2.47,3.04,6,3.27,11.04h15.69C67.06,32.89,65.37,28.93,63.34,26.23z"/>
<path class="st3" d="M66.16,60.21l-0.02-0.03c0,0-0.02-0.07-0.07-0.22C66.1,60.04,66.13,60.13,66.16,60.21L66.16,60.21z"/>
<path class="st3" d="M45.62,60.21L45.62,60.21c0.09,0.14,0.17,0.25,0.23,0.34C45.71,60.33,45.63,60.22,45.62,60.21z"/>
<path class="st3" d="M65.78,59.06l-0.04-0.02c0.16,0.41,0.27,0.73,0.33,0.91C65.98,59.67,65.89,59.37,65.78,59.06z"/>
<path class="st2" d="M41.22,78.79h-7.56c1.4,1.63,2.86,2.49,4.25,2.86c1.08,0.29,2.12,0.29,3.05,0.15c0.25-0.04,0.5-0.09,0.73-0.15
	c1.75-0.43,2.98-1.31,3.13-1.45l0-0.01c0.43-0.47,0.82-0.93,1.17-1.4H41.22z"/>
<path class="st2" d="M67.35,65.62c-0.15-1.18-0.38-2.44-0.74-3.8c-0.14-0.53-0.29-1.07-0.46-1.62c-0.03-0.08-0.05-0.16-0.08-0.25
	c-0.06-0.19-0.17-0.5-0.33-0.91c-0.56-1.45-1.77-4.18-3.94-7.49c0,0-1-1.47-2.2-3.23c-0.79-1.16-1.66-2.45-2.26-3.52h-21.9
	c1.29,1.97,8.38,12.8,10.18,15.4h0c0.01,0.01,0.09,0.12,0.23,0.34c0.49,0.73,1.62,2.58,2.36,5.08c0.76,2.56,1.12,5.79-0.05,9.16
	c-0.19,0.54-0.41,1.08-0.68,1.62c-0.24,0.49-0.52,0.97-0.83,1.46c-0.2,0.31-0.41,0.62-0.64,0.92c-0.35,0.47-0.74,0.94-1.17,1.4
	c0.02-0.01,0.02-0.01,0.01,0c0,0-0.01,0.01-0.02,0.01c-0.16,0.14-1.39,1.01-3.13,1.45h3h15.15c1.76-1.15,3.12-2.34,3.12-2.34
	s0.26-0.17,0.65-0.52c0.22-0.2,0.49-0.47,0.77-0.8c0.59-0.68,1.26-1.63,1.83-2.91C67.19,72.92,67.87,69.84,67.35,65.62z"/>
<path d="M67.57,65.59c-0.15-1.23-0.4-2.51-0.74-3.82c-0.14-0.53-0.29-1.08-0.47-1.63l-0.08-0.25c-0.06-0.19-0.17-0.51-0.34-0.92
	c-0.53-1.36-1.75-4.15-3.96-7.54l-2.2-3.23c-0.82-1.2-1.66-2.46-2.25-3.5l-0.06-0.11H35.04l0.22,0.34
	c1.39,2.12,8.4,12.82,10.18,15.41l0.07,0.09h0c0.04,0.06,0.09,0.14,0.16,0.24c0.45,0.68,1.59,2.53,2.33,5.02
	c0.95,3.17,0.93,6.21-0.05,9.02c-0.19,0.54-0.41,1.08-0.67,1.6c-0.24,0.48-0.52,0.97-0.82,1.44c-0.18,0.28-0.37,0.55-0.57,0.82
	H33.19l0.31,0.36c1.29,1.51,2.76,2.5,4.36,2.93c0.62,0.17,1.26,0.25,1.91,0.25c0.4,0,0.82-0.03,1.23-0.1
	c0.24-0.04,0.48-0.09,0.72-0.15h18.2l0.06-0.04c1.75-1.14,3.12-2.34,3.11-2.34c0,0,0,0,0,0c0.01-0.01,0.28-0.18,0.68-0.55
	c0.27-0.24,0.53-0.52,0.79-0.82c0.74-0.85,1.37-1.85,1.87-2.96C67.64,72.47,68.02,69.25,67.57,65.59z M37.97,81.44
	c-1.38-0.37-2.66-1.19-3.82-2.43h11.4c-0.06,0.08-0.12,0.16-0.19,0.24c-0.05,0.06-0.1,0.12-0.15,0.18
	c-0.18,0.21-0.36,0.42-0.55,0.62l-0.02,0.02c-0.02,0.02-0.06,0.04-0.1,0.07c-0.01,0-0.01,0.01-0.01,0.01
	c-0.03,0.02-0.08,0.06-0.13,0.09c-0.03,0.02-0.04,0.03-0.07,0.05c-0.05,0.03-0.1,0.06-0.16,0.1c-0.04,0.02-0.08,0.05-0.12,0.07
	c-0.06,0.03-0.13,0.07-0.2,0.11c-0.05,0.03-0.1,0.06-0.16,0.09c-0.07,0.04-0.16,0.08-0.24,0.12c-0.06,0.03-0.12,0.06-0.19,0.09
	c-0.09,0.04-0.19,0.08-0.29,0.13c-0.07,0.03-0.13,0.06-0.19,0.08c-0.12,0.05-0.25,0.09-0.38,0.14c-0.06,0.02-0.11,0.04-0.17,0.06
	c-0.19,0.06-0.39,0.12-0.6,0.17c-0.24,0.06-0.48,0.11-0.72,0.14c-0.39,0.06-0.78,0.09-1.16,0.09
	C39.15,81.67,38.55,81.59,37.97,81.44z M66.02,74.99c-0.48,1.07-1.09,2.03-1.8,2.86c-0.25,0.28-0.5,0.55-0.75,0.78
	c-0.37,0.34-0.62,0.5-0.65,0.52c-0.01,0.01-1.33,1.16-3.04,2.28H43.07c0.14-0.06,0.27-0.11,0.39-0.17c0.02-0.01,0.03-0.02,0.05-0.02
	c0.13-0.06,0.25-0.12,0.37-0.18c0.03-0.02,0.06-0.03,0.09-0.05c0.11-0.06,0.21-0.12,0.31-0.17c0.01-0.01,0.02-0.01,0.03-0.02
	c0.11-0.06,0.2-0.12,0.29-0.18c0.01-0.01,0.02-0.01,0.03-0.02c0.07-0.05,0.13-0.09,0.19-0.13c0.01-0.01,0.02-0.01,0.03-0.02
	c0.05-0.04,0.1-0.07,0.12-0.1l0,0c0,0,0,0,0,0l0.07-0.07l0-0.01l0.06-0.07l0,0c0.13-0.14,0.25-0.29,0.38-0.43
	c0.05-0.06,0.11-0.13,0.17-0.19c0.19-0.22,0.36-0.45,0.53-0.68l0.26-0.35h-0.01c0.14-0.19,0.27-0.39,0.4-0.59
	c0.31-0.49,0.6-0.98,0.85-1.48c0.26-0.53,0.5-1.09,0.69-1.65c1.01-2.9,1.03-6.03,0.05-9.29c-0.76-2.54-1.92-4.44-2.39-5.14
	c-0.14-0.21-0.23-0.33-0.24-0.35l-0.01-0.02c-1.72-2.5-8.15-12.31-9.94-15.04h21.37c0.59,1.04,1.41,2.26,2.21,3.42l2.2,3.22
	c2.19,3.35,3.39,6.11,3.92,7.45c0.16,0.41,0.27,0.72,0.33,0.9l0.08,0.25c0.17,0.55,0.32,1.09,0.46,1.61
	c0.34,1.29,0.58,2.56,0.73,3.77C67.58,69.22,67.2,72.36,66.02,74.99z"/>
<path d="M63.52,26.1c-1.54-2.06-3.29-3.39-4.19-4.01l-0.06-0.04H40.53l-0.01,0c-0.34-0.04-0.68-0.06-1.02-0.06l-0.1,0
	c-0.31,0-0.63,0.03-0.93,0.06c-3.33,0.41-5.49,2.71-6.47,4.04l-0.26,0.35h14.63c0.22,0.27,0.44,0.54,0.64,0.83
	c1.94,2.72,3.02,6.4,3.23,10.92l0.01,0.21h16.08l0.03-0.18C67.14,33.73,66.18,29.65,63.52,26.1z M38.52,22.49
	c0.29-0.04,0.59-0.06,0.89-0.06l0.09,0c0.32,0,0.64,0.02,0.94,0.05c0.28,0.09,0.56,0.2,0.84,0.3c0.09,0.04,0.18,0.08,0.26,0.11
	c0.18,0.08,0.36,0.15,0.54,0.24c0.1,0.05,0.2,0.1,0.3,0.15c0.16,0.08,0.31,0.16,0.46,0.24c0.11,0.06,0.21,0.12,0.31,0.18
	c0.14,0.08,0.28,0.17,0.42,0.26c0.1,0.07,0.21,0.14,0.31,0.21c0.13,0.09,0.26,0.18,0.39,0.28c0.1,0.08,0.2,0.15,0.3,0.23
	c0.12,0.1,0.25,0.2,0.37,0.3c0.1,0.08,0.19,0.17,0.28,0.25c0.12,0.11,0.23,0.22,0.34,0.33c0.09,0.09,0.18,0.18,0.27,0.27
	c0.05,0.05,0.09,0.1,0.14,0.15H32.61C33.65,24.71,35.62,22.85,38.52,22.49z M65.95,37.96H50.66c-0.23-4.51-1.34-8.19-3.3-10.94
	c-0.14-0.2-0.29-0.38-0.44-0.57h0.03l-0.31-0.36c-0.18-0.22-0.38-0.43-0.57-0.63c-0.06-0.06-0.13-0.13-0.19-0.19
	c-0.14-0.14-0.28-0.27-0.42-0.4c-0.08-0.07-0.15-0.14-0.23-0.2c-0.14-0.12-0.28-0.24-0.43-0.35c-0.08-0.06-0.16-0.13-0.24-0.19
	c-0.16-0.12-0.32-0.23-0.48-0.34c-0.07-0.05-0.14-0.1-0.22-0.15c-0.22-0.15-0.45-0.29-0.68-0.42c-0.01-0.01-0.03-0.02-0.04-0.02
	c-0.25-0.14-0.51-0.28-0.77-0.41c-0.06-0.03-0.13-0.06-0.19-0.09c-0.15-0.07-0.29-0.14-0.45-0.2h17.42
	c0.89,0.61,2.56,1.91,4.03,3.87C65.72,29.76,66.65,33.66,65.95,37.96z"/>
</svg>
