<?xml version="1.0" encoding="utf-8"?>
<!-- Generator: Adobe Illustrator 24.0.1, SVG Export Plug-In . SVG Version: 6.00 Build 0)  -->
<svg version="1.1" id="Layer_1" xmlns="http://www.w3.org/2000/svg" xmlns:xlink="http://www.w3.org/1999/xlink" x="0px" y="0px"
	 viewBox="0 0 100 100" style="enable-background:new 0 0 100 100;" xml:space="preserve">
<style type="text/css">
	.st0{fill:none;stroke:#FCEE23;stroke-width:2;stroke-miterlimit:10;}
	.st1{fill:none;stroke:#FFFFFF;stroke-miterlimit:10;}
	.st2{fill:none;stroke:#FFFFFF;stroke-width:0.25;stroke-miterlimit:10;}
	.st3{fill:#FFFFFF;}
	.st4{fill:none;stroke:#FCEE23;stroke-width:3;stroke-miterlimit:10;}
</style>
<rect x="20.01" y="12.47" class="st0" width="62.65" height="83.2"/>
<path class="st1" d="M92.02,30.71h-5.99l0,0H16.65l0,0h-5.99c-0.01,0-0.01,0-0.02,0h-0.03l0,0c-2.91,0.04-5.25,3.78-5.25,8.38v1.08
	c0,4.6,2.35,8.34,5.25,8.38l0,0h80.91l0,0h0.51c2.93,0,5.3-3.75,5.3-8.38v-1.08C97.33,34.47,94.95,30.71,92.02,30.71z"/>
<path class="st1" d="M92.02,63.36h-5.99l0,0H16.65l0,0h-5.99c-0.01,0-0.01,0-0.02,0h-0.03l0,0c-2.91,0.04-5.25,3.78-5.25,8.38v1.08
	c0,4.6,2.35,8.34,5.25,8.38l0,0h80.91l0,0h0.51c2.93,0,5.3-3.75,5.3-8.38v-1.08C97.33,67.11,94.95,63.36,92.02,63.36z"/>
<path class="st2" d="M14.42,72.28c0,3.95-1.74,7.14-3.88,7.14s-3.88-3.19-3.88-7.14s1.74-7.14,3.88-7.14S14.42,68.33,14.42,72.28z"
	/>
<path class="st2" d="M14.42,39.63c0,3.95-1.74,7.14-3.88,7.14s-3.88-3.19-3.88-7.14s1.74-7.14,3.88-7.14
	C12.68,32.49,14.42,35.68,14.42,39.63z"/>
<path class="st3" d="M43.25,85.04c-0.65,0-1.3-0.08-1.91-0.25c-1.6-0.44-3.06-1.42-4.34-2.91l-0.72-0.84h12.69
	c0.16-0.22,0.31-0.44,0.45-0.65c0.31-0.49,0.57-0.93,0.77-1.35c0.25-0.48,0.46-0.98,0.64-1.5c0.92-2.65,0.94-5.51,0.05-8.49
	c-0.73-2.46-1.87-4.25-2.2-4.74l-0.22-0.32c-1.77-2.58-8.97-13.56-9.78-14.8l-0.51-0.79h22.28l0.15,0.27
	c0.48,0.84,1.18,1.93,2.14,3.33l2.11,3.1c2.14,3.27,3.33,5.98,3.84,7.3c0.15,0.41,0.26,0.72,0.33,0.9l0.08,0.24
	c0.17,0.54,0.32,1.06,0.46,1.58c0.33,1.28,0.57,2.53,0.72,3.71c0.44,3.58,0.05,6.73-1.15,9.38c-0.49,1.1-1.11,2.09-1.84,2.92
	c-0.25,0.28-0.51,0.56-0.79,0.81c-0.22,0.21-0.44,0.39-0.66,0.54c-0.01,0-1.34,1.16-3.02,2.26l-0.08,0.05l-0.14,0.03H45.12
	c-0.16,0.05-0.4,0.09-0.64,0.14C44.07,85.01,43.66,85.04,43.25,85.04z M38.59,82.05c0.93,0.86,1.95,1.45,3.02,1.74
	c0.52,0.14,1.08,0.22,1.67,0.23c0.35,0,0.71-0.03,1.07-0.09c0.22-0.04,0.44-0.08,0.66-0.13c0.2-0.05,0.39-0.11,0.56-0.16
	c0.06-0.02,0.11-0.04,0.16-0.06c0.15-0.05,0.25-0.08,0.33-0.12l0.47-0.2l0.2-0.1c0.07-0.03,0.13-0.06,0.19-0.09l0.09-0.05
	c0.11-0.07,0.19-0.11,0.26-0.15l0.26,0.2l-0.16-0.26l0.14-0.08l0.06-0.04v-0.14l0.18-0.01c0.17-0.19,0.31-0.34,0.44-0.49H38.59z
	 M62.39,83.77c1.59-1.04,2.8-2.1,2.81-2.11c0.15-0.11,0.35-0.25,0.62-0.5c0.24-0.22,0.48-0.47,0.71-0.73
	c0.67-0.76,1.23-1.66,1.68-2.66c1.11-2.49,1.46-5.44,1.04-8.79c-0.14-1.12-0.37-2.33-0.69-3.58c-0.13-0.51-0.28-1.02-0.44-1.54
	l-0.07-0.24c-0.06-0.17-0.16-0.46-0.31-0.85c-0.49-1.27-1.63-3.89-3.73-7.1l-2.11-3.1c-0.64-0.93-1.44-2.11-2.05-3.16H40.04
	l1.16,1.77c2.52,3.84,6.75,10.27,8.08,12.2c0.02,0.03,0.16,0.23,0.24,0.36c0.57,0.86,1.63,2.67,2.33,5.01
	c0.96,3.19,0.94,6.26-0.05,9.11c-0.17,0.51-0.4,1.06-0.67,1.61c-0.21,0.44-0.48,0.92-0.83,1.46c-0.02,0.03-0.04,0.07-0.06,0.1h0.02
	l-0.34,0.48l-0.25,0.34c-0.16,0.22-0.34,0.45-0.52,0.67l-0.16,0.18l-0.35,0.41v0.03l-0.12,0.11c0,0-0.14,0.11-0.18,0.14
	c-0.11,0.07-0.16,0.11-0.22,0.15l-0.39,0.24H62.39z"/>
<path class="st3" d="M51.63,42.7l-0.02-0.48c-0.2-4.29-1.22-7.76-3.04-10.33c-0.17-0.22-0.34-0.44-0.52-0.66h-14.5l0.6-0.82
	c0.98-1.32,3.11-3.59,6.42-4c0.31-0.04,0.62-0.06,0.94-0.06h0.1c0.33,0,0.67,0.02,1.02,0.06l18.1,0l0.08,0.06
	c0.92,0.63,2.62,1.95,4.12,3.94c2.62,3.49,3.55,7.48,2.77,11.86l-0.07,0.43H51.63z M66.76,41.69c0.59-3.95-0.31-7.54-2.67-10.67
	c-1.35-1.81-2.88-3.02-3.72-3.6H45.01c0.05,0.03,0.1,0.05,0.14,0.08h0.05l0.13,0.11c0.16,0.07,0.39,0.21,0.61,0.36
	c0.06,0.03,0.14,0.09,0.22,0.15c0.16,0.11,0.31,0.22,0.46,0.33l0.23,0.18c0.15,0.12,0.3,0.23,0.43,0.36c0,0,0.19,0.17,0.23,0.21
	c0.13,0.12,0.28,0.26,0.41,0.39l0.18,0.18c0.2,0.2,0.38,0.4,0.57,0.62l0.72,0.85h-0.05c0.02,0.03,0.04,0.05,0.06,0.08
	c1.87,2.63,2.95,6.12,3.21,10.38H66.76z M47.11,30.19l-0.21-0.2l-0.27-0.24c-0.11-0.1-0.22-0.19-0.33-0.27l-0.11-0.09
	c-0.05-0.04-0.1-0.09-0.16-0.13L45.65,29c-0.09-0.07-0.18-0.13-0.27-0.19c-0.14-0.09-0.27-0.17-0.4-0.25l-0.31-0.18l-0.72-0.37
	c-0.16-0.08-0.33-0.15-0.5-0.22c-0.09-0.04-0.15-0.08-0.23-0.1c-0.27-0.1-0.54-0.2-0.8-0.29c-0.21-0.02-0.51-0.04-0.81-0.04
	l-0.09-0.3l0.01,0.3c-0.28,0.01-0.56,0.03-0.83,0.06c-2.28,0.29-3.95,1.58-5.05,2.77H47.11z"/>
<path class="st3" d="M64.69,30.59c-1.48-1.97-3.16-3.26-4.02-3.85l-0.05-0.04H42.6h-0.01c-0.33-0.04-0.66-0.06-0.98-0.06h-0.1
	c-0.3,0-0.6,0.02-0.9,0.06c-3.2,0.4-5.27,2.6-6.22,3.88l-0.25,0.34h14.05c0.21,0.26,0.42,0.52,0.62,0.79
	c1.86,2.62,2.9,6.15,3.1,10.49l0.01,0.2h15.45l0.03-0.18C68.17,37.92,67.25,34,64.69,30.59z M40.67,27.12
	c0.28-0.03,0.56-0.05,0.85-0.06h0.09c0.31,0,0.62,0.02,0.9,0.05c0.27,0.09,0.54,0.19,0.8,0.29c0.09,0.03,0.17,0.07,0.25,0.11
	c0.17,0.07,0.35,0.15,0.52,0.23c0.1,0.05,0.19,0.1,0.29,0.15c0.15,0.08,0.3,0.15,0.45,0.23c0.1,0.06,0.2,0.12,0.3,0.18
	c0.14,0.08,0.27,0.16,0.41,0.25c0.1,0.06,0.2,0.13,0.29,0.2c0.13,0.09,0.25,0.18,0.38,0.27c0.1,0.07,0.19,0.15,0.28,0.22
	c0.12,0.09,0.24,0.19,0.35,0.29c0.09,0.08,0.18,0.16,0.27,0.24c0.11,0.1,0.22,0.21,0.33,0.31c0.09,0.09,0.17,0.17,0.26,0.26
	c0.05,0.05,0.09,0.1,0.14,0.15H35C36,29.26,37.89,27.47,40.67,27.12z M67.02,41.99H52.33c-0.22-4.33-1.29-7.87-3.17-10.51
	c-0.13-0.19-0.28-0.37-0.43-0.55h0.02l-0.3-0.35c-0.18-0.21-0.36-0.41-0.55-0.6c-0.06-0.06-0.12-0.12-0.18-0.18
	c-0.13-0.13-0.27-0.26-0.41-0.39c-0.07-0.07-0.15-0.13-0.22-0.2c-0.13-0.12-0.27-0.23-0.41-0.34c-0.08-0.06-0.15-0.12-0.23-0.18
	c-0.15-0.11-0.3-0.22-0.46-0.33c-0.07-0.05-0.14-0.1-0.21-0.14c-0.21-0.14-0.43-0.28-0.66-0.4c-0.01-0.01-0.02-0.02-0.04-0.02
	c-0.24-0.14-0.49-0.27-0.74-0.39c-0.06-0.03-0.13-0.06-0.19-0.09c-0.14-0.07-0.28-0.13-0.43-0.2h16.74
	c0.86,0.59,2.46,1.83,3.87,3.72C66.8,34.11,67.7,37.86,67.02,41.99z"/>
<rect x="105.64" y="-134.54" class="st4" width="62.65" height="83.2"/>
<path class="st1" d="M177.65-116.3h-5.99l0,0h-69.38l0,0h-5.99c-0.01,0-0.01,0-0.02,0h-0.03l0,0c-2.91,0.04-5.25,3.78-5.25,8.38
	v1.08c0,4.6,2.35,8.34,5.25,8.38l0,0h80.91l0,0h0.51c2.93,0,5.3-3.75,5.3-8.38v-1.08C182.96-112.54,180.58-116.3,177.65-116.3z"/>
<path class="st1" d="M177.65-83.65h-5.99l0,0h-69.38l0,0h-5.99c-0.01,0-0.01,0-0.02,0h-0.03l0,0c-2.91,0.04-5.25,3.78-5.25,8.38
	v1.08c0,4.6,2.35,8.34,5.25,8.38l0,0h80.91l0,0h0.51c2.93,0,5.3-3.75,5.3-8.38v-1.08C182.96-79.9,180.58-83.65,177.65-83.65z"/>
<path class="st2" d="M100.06-74.73c0,3.95-1.74,7.14-3.88,7.14s-3.88-3.19-3.88-7.14s1.74-7.14,3.88-7.14S100.06-78.68,100.06-74.73
	z"/>
<path class="st2" d="M100.06-107.38c0,3.95-1.74,7.14-3.88,7.14s-3.88-3.19-3.88-7.14s1.74-7.14,3.88-7.14
	S100.06-111.33,100.06-107.38z"/>
<path class="st3" d="M128.89-61.98c-0.65,0-1.3-0.08-1.91-0.25c-1.6-0.44-3.06-1.42-4.34-2.91l-0.72-0.84h12.69
	c0.16-0.22,0.31-0.44,0.45-0.65c0.31-0.49,0.57-0.93,0.77-1.35c0.25-0.48,0.46-0.98,0.64-1.5c0.92-2.65,0.94-5.51,0.05-8.49
	c-0.73-2.46-1.87-4.25-2.2-4.74l-0.22-0.32c-1.77-2.58-8.97-13.56-9.78-14.8l-0.51-0.79h22.28l0.15,0.27
	c0.48,0.84,1.18,1.93,2.14,3.33l2.11,3.1c2.14,3.27,3.33,5.98,3.84,7.3c0.15,0.41,0.26,0.72,0.33,0.9l0.08,0.24
	c0.17,0.54,0.32,1.06,0.46,1.58c0.33,1.28,0.57,2.53,0.72,3.71c0.44,3.58,0.05,6.73-1.15,9.38c-0.49,1.1-1.11,2.09-1.84,2.92
	c-0.25,0.28-0.51,0.56-0.79,0.81c-0.22,0.21-0.44,0.39-0.66,0.54c-0.01,0-1.34,1.16-3.02,2.26l-0.08,0.05l-0.14,0.03h-17.48
	c-0.16,0.05-0.4,0.09-0.64,0.14C129.71-62.01,129.3-61.98,128.89-61.98z M124.23-64.97c0.93,0.86,1.95,1.45,3.02,1.74
	c0.52,0.14,1.08,0.22,1.67,0.23c0.35,0,0.71-0.03,1.07-0.09c0.22-0.04,0.44-0.08,0.66-0.13c0.2-0.05,0.39-0.11,0.56-0.16
	c0.06-0.02,0.11-0.04,0.16-0.06c0.15-0.05,0.25-0.08,0.33-0.12l0.47-0.2l0.2-0.1c0.07-0.03,0.13-0.06,0.19-0.09l0.09-0.05
	c0.11-0.07,0.19-0.11,0.26-0.15l0.26,0.2l-0.16-0.26l0.14-0.08l0.06-0.04v-0.14l0.18-0.01c0.17-0.19,0.31-0.34,0.44-0.49H124.23z
	 M148.03-63.24c1.59-1.04,2.8-2.1,2.81-2.11c0.15-0.11,0.35-0.25,0.62-0.5c0.24-0.22,0.48-0.47,0.71-0.73
	c0.67-0.76,1.23-1.66,1.68-2.66c1.11-2.49,1.46-5.44,1.04-8.79c-0.14-1.12-0.37-2.33-0.69-3.58c-0.13-0.51-0.28-1.02-0.44-1.54
	l-0.07-0.24c-0.06-0.17-0.16-0.46-0.31-0.85c-0.49-1.27-1.63-3.89-3.73-7.1l-2.11-3.1c-0.64-0.93-1.44-2.11-2.05-3.16h-19.81
	l1.16,1.77c2.52,3.84,6.75,10.27,8.08,12.2c0.02,0.03,0.16,0.23,0.24,0.36c0.57,0.86,1.63,2.67,2.33,5.01
	c0.96,3.19,0.94,6.26-0.05,9.11c-0.17,0.51-0.4,1.06-0.67,1.61c-0.21,0.44-0.48,0.92-0.83,1.46c-0.02,0.03-0.04,0.07-0.06,0.1h0.02
	l-0.34,0.48l-0.25,0.34c-0.16,0.22-0.34,0.45-0.52,0.67l-0.16,0.18l-0.35,0.41v0.03l-0.12,0.11c0,0-0.14,0.11-0.18,0.14
	c-0.11,0.07-0.16,0.11-0.22,0.15l-0.39,0.24H148.03z"/>
<path class="st3" d="M155.61-78.16c-0.15-1.18-0.39-2.41-0.71-3.67c-0.13-0.51-0.28-1.03-0.45-1.56l-0.08-0.24
	c-0.06-0.18-0.17-0.49-0.32-0.89c-0.51-1.31-1.68-3.99-3.81-7.24l-2.11-3.1c-0.79-1.15-1.59-2.36-2.16-3.36l-0.06-0.11h-21.56
	l0.21,0.33c1.33,2.03,8.07,12.31,9.78,14.8l0.06,0.09l0,0c0.04,0.05,0.09,0.13,0.16,0.23c0.44,0.65,1.53,2.43,2.24,4.82
	c0.91,3.05,0.89,5.96-0.05,8.67c-0.18,0.52-0.4,1.04-0.65,1.53c-0.23,0.47-0.5,0.93-0.79,1.38c-0.17,0.26-0.36,0.53-0.55,0.79
	h-12.19l0.3,0.35c1.24,1.45,2.65,2.4,4.19,2.82c0.59,0.16,1.21,0.24,1.83,0.24c0.39,0,0.79-0.03,1.18-0.09
	c0.23-0.04,0.46-0.08,0.69-0.14h17.48l0.05-0.03c1.68-1.1,2.99-2.24,2.99-2.24l0,0c0.01-0.01,0.27-0.17,0.65-0.53
	c0.26-0.23,0.51-0.5,0.76-0.78c0.71-0.82,1.31-1.78,1.79-2.85C155.67-71.56,156.04-74.65,155.61-78.16z M127.17-62.94
	c-1.33-0.36-2.56-1.14-3.67-2.33h10.95c-0.06,0.08-0.12,0.15-0.18,0.23c-0.05,0.06-0.09,0.12-0.14,0.17c-0.17,0.2-0.34,0.4-0.52,0.6
	l-0.01,0.02c-0.02,0.02-0.05,0.04-0.09,0.07c-0.01,0-0.01,0.01-0.01,0.01c-0.03,0.02-0.08,0.05-0.12,0.08
	c-0.02,0.02-0.04,0.03-0.07,0.05c-0.04,0.03-0.1,0.06-0.15,0.09c-0.04,0.02-0.07,0.05-0.12,0.07c-0.06,0.03-0.13,0.07-0.19,0.11
	c-0.05,0.03-0.1,0.05-0.15,0.08c-0.07,0.04-0.15,0.08-0.23,0.11c-0.06,0.03-0.11,0.06-0.18,0.09c-0.09,0.04-0.19,0.08-0.28,0.12
	c-0.06,0.03-0.12,0.05-0.19,0.08c-0.11,0.05-0.24,0.09-0.36,0.13c-0.06,0.02-0.11,0.04-0.16,0.06c-0.18,0.06-0.38,0.12-0.58,0.17
	c-0.23,0.06-0.46,0.1-0.69,0.14c-0.37,0.06-0.75,0.09-1.12,0.09C128.3-62.71,127.72-62.79,127.17-62.94z M154.12-69.13
	c-0.46,1.03-1.04,1.95-1.73,2.74c-0.24,0.27-0.48,0.52-0.73,0.75c-0.36,0.33-0.6,0.48-0.62,0.5c-0.01,0.01-1.28,1.12-2.92,2.19
	h-16.06c0.13-0.05,0.26-0.11,0.37-0.16c0.02-0.01,0.03-0.01,0.05-0.02c0.13-0.06,0.24-0.12,0.36-0.18c0.03-0.02,0.06-0.03,0.09-0.05
	c0.11-0.06,0.21-0.11,0.3-0.16c0.01-0.01,0.02-0.01,0.03-0.02c0.1-0.06,0.2-0.12,0.28-0.17c0.01-0.01,0.02-0.01,0.03-0.02
	c0.07-0.05,0.13-0.09,0.18-0.12c0.01-0.01,0.02-0.01,0.03-0.02c0.05-0.04,0.09-0.07,0.12-0.09l0,0l0,0l0.07-0.06v-0.01l0.06-0.07
	l0,0c0.12-0.14,0.24-0.28,0.36-0.42c0.05-0.06,0.11-0.12,0.16-0.18c0.18-0.21,0.35-0.43,0.51-0.65l0.25-0.34h-0.01
	c0.13-0.19,0.26-0.37,0.38-0.56c0.3-0.47,0.58-0.95,0.81-1.43c0.25-0.51,0.48-1.05,0.66-1.58c0.97-2.79,0.99-5.79,0.05-8.93
	c-0.73-2.44-1.85-4.26-2.29-4.93c-0.13-0.2-0.22-0.32-0.23-0.33l-0.01-0.02c-1.66-2.41-7.83-11.83-9.55-14.44h20.54
	c0.57,1,1.35,2.17,2.12,3.29l2.11,3.1c2.1,3.22,3.26,5.87,3.76,7.16c0.15,0.39,0.26,0.69,0.32,0.87l0.07,0.24
	c0.16,0.52,0.31,1.04,0.44,1.55c0.32,1.24,0.56,2.46,0.7,3.62C155.61-74.68,155.25-71.66,154.12-69.13z"/>
<path class="st3" d="M137.27-104.31l-0.02-0.48c-0.2-4.29-1.22-7.76-3.04-10.33c-0.17-0.22-0.34-0.44-0.52-0.66h-14.5l0.6-0.82
	c0.98-1.32,3.11-3.59,6.42-4c0.31-0.04,0.62-0.06,0.94-0.06h0.1c0.33,0,0.67,0.02,1.02,0.06l18.1,0l0.08,0.06
	c0.92,0.63,2.62,1.95,4.12,3.94c2.62,3.49,3.55,7.48,2.77,11.86l-0.07,0.43H137.27z M152.4-105.32c0.59-3.95-0.31-7.54-2.67-10.67
	c-1.35-1.81-2.88-3.02-3.72-3.6h-15.35c0.05,0.03,0.1,0.05,0.14,0.08h0.05l0.13,0.11c0.16,0.07,0.39,0.21,0.61,0.36
	c0.06,0.03,0.14,0.09,0.22,0.15c0.16,0.11,0.31,0.22,0.46,0.33l0.23,0.18c0.15,0.12,0.3,0.23,0.43,0.36c0,0,0.19,0.17,0.23,0.21
	c0.13,0.12,0.28,0.26,0.41,0.39l0.18,0.18c0.2,0.2,0.38,0.4,0.57,0.62l0.72,0.85h-0.05c0.02,0.03,0.04,0.05,0.06,0.08
	c1.87,2.63,2.95,6.12,3.21,10.38H152.4z M132.74-116.82l-0.21-0.2l-0.27-0.24c-0.11-0.1-0.22-0.19-0.33-0.27l-0.11-0.09
	c-0.05-0.04-0.1-0.09-0.16-0.13l-0.38-0.27c-0.09-0.07-0.18-0.13-0.27-0.19c-0.14-0.09-0.27-0.17-0.4-0.25l-0.31-0.18l-0.72-0.37
	c-0.16-0.08-0.33-0.15-0.5-0.22c-0.09-0.04-0.15-0.08-0.23-0.1c-0.27-0.1-0.54-0.2-0.8-0.29c-0.21-0.02-0.51-0.04-0.81-0.04
	l-0.09-0.3l0.01,0.3c-0.28,0.01-0.56,0.03-0.83,0.06c-2.28,0.29-3.95,1.58-5.05,2.77H132.74z"/>
<path class="st3" d="M150.32-116.42c-1.48-1.97-3.16-3.26-4.02-3.85l-0.05-0.04h-18.02h-0.01c-0.33-0.04-0.66-0.06-0.98-0.06h-0.1
	c-0.3,0-0.6,0.02-0.9,0.06c-3.2,0.4-5.27,2.6-6.22,3.88l-0.25,0.34h14.05c0.21,0.26,0.42,0.52,0.62,0.79
	c1.86,2.62,2.9,6.15,3.1,10.49l0.01,0.2H153l0.03-0.18C153.8-109.09,152.88-113.01,150.32-116.42z M126.3-119.89
	c0.28-0.03,0.56-0.05,0.85-0.06h0.09c0.31,0,0.62,0.02,0.9,0.05c0.27,0.09,0.54,0.19,0.8,0.29c0.09,0.03,0.17,0.07,0.25,0.11
	c0.17,0.07,0.35,0.15,0.52,0.23c0.1,0.05,0.19,0.1,0.29,0.15c0.15,0.08,0.3,0.15,0.45,0.23c0.1,0.06,0.2,0.12,0.3,0.18
	c0.14,0.08,0.27,0.16,0.41,0.25c0.1,0.06,0.2,0.13,0.29,0.2c0.13,0.09,0.25,0.18,0.38,0.27c0.1,0.07,0.19,0.15,0.28,0.22
	c0.12,0.09,0.24,0.19,0.35,0.29c0.09,0.08,0.18,0.16,0.27,0.24c0.11,0.1,0.22,0.21,0.33,0.31c0.09,0.09,0.17,0.17,0.26,0.26
	c0.05,0.05,0.09,0.1,0.14,0.15h-12.83C121.63-117.75,123.52-119.54,126.3-119.89z M152.65-105.02h-14.69
	c-0.22-4.33-1.29-7.87-3.17-10.51c-0.13-0.19-0.28-0.37-0.43-0.55h0.02l-0.3-0.35c-0.18-0.21-0.36-0.41-0.55-0.6
	c-0.06-0.06-0.12-0.12-0.18-0.18c-0.13-0.13-0.27-0.26-0.41-0.39c-0.07-0.07-0.15-0.13-0.22-0.2c-0.13-0.12-0.27-0.23-0.41-0.34
	c-0.08-0.06-0.15-0.12-0.23-0.18c-0.15-0.11-0.3-0.22-0.46-0.33c-0.07-0.05-0.14-0.1-0.21-0.14c-0.21-0.14-0.43-0.28-0.66-0.4
	c-0.01-0.01-0.02-0.02-0.04-0.02c-0.24-0.14-0.49-0.27-0.74-0.39c-0.06-0.03-0.13-0.06-0.19-0.09c-0.14-0.07-0.28-0.13-0.43-0.2
	h16.74c0.86,0.59,2.46,1.83,3.87,3.72C152.43-112.9,153.33-109.15,152.65-105.02z"/>
</svg>
