<?xml version="1.0" encoding="utf-8"?>
<!-- Generator: Adobe Illustrator 24.0.1, SVG Export Plug-In . SVG Version: 6.00 Build 0)  -->
<svg version="1.1" id="Layer_1" xmlns="http://www.w3.org/2000/svg" xmlns:xlink="http://www.w3.org/1999/xlink" x="0px" y="0px"
	 viewBox="0 0 100 86.6" style="enable-background:new 0 0 100 86.6;" xml:space="preserve">
<style type="text/css">
	.st0{fill:#FFF200;}
	.st1{fill:#FFFFFF;stroke:#000000;stroke-miterlimit:10;}
	.st2{fill:#FFFFFF;}
</style>
<rect x="18.7" y="1.7" class="st0" width="62.7" height="83.2"/>
<path class="st1" d="M90.7,19.9h-6l0,0H15.3l0,0h-6c0,0,0,0,0,0h0l0,0C6.4,20,4,23.7,4,28.3v1.1c0,4.6,2.3,8.3,5.3,8.4l0,0h80.9l0,0
	h0.5c2.9,0,5.3-3.8,5.3-8.4v-1.1C96,23.7,93.6,19.9,90.7,19.9z"/>
<path d="M13.6,28.9c0,4.5-2,8.2-4.4,8.2s-4.4-3.7-4.4-8.2s2-8.2,4.4-8.2C11.6,20.7,13.6,24.4,13.6,28.9z"/>
<path class="st1" d="M90.7,52.6h-6l0,0H15.3l0,0h-6c0,0,0,0,0,0h0l0,0C6.4,52.6,4,56.4,4,61V62c0,4.6,2.3,8.3,5.3,8.4l0,0h80.9l0,0
	h0.5c2.9,0,5.3-3.8,5.3-8.4V61C96,56.3,93.6,52.6,90.7,52.6z"/>
<path d="M13.6,61.5c0,4.5-2,8.2-4.4,8.2S4.8,66,4.8,61.5s2-8.2,4.4-8.2C11.6,53.3,13.6,57,13.6,61.5z"/>
<path class="st2" d="M41.2,16.1L41.2,16.1c-0.4,0-0.7-0.1-1.1,0c-0.3,0-0.6,0-0.9,0.1c-3.2,0.4-5.2,2.6-6.1,3.8h8H47
	C45.3,17.9,43.2,16.8,41.2,16.1z"/>
<path class="st2" d="M63.2,19.9c-1.5-1.9-3.1-3.2-4-3.8h-18h0c1.9,0.6,4,1.8,5.7,3.8c0.2,0.3,0.5,0.6,0.7,0.9
	c1.7,2.4,2.9,5.8,3.1,10.6h15.1C66.8,26.3,65.1,22.5,63.2,19.9z"/>
<path class="st1" d="M65.9,52.6L65.9,52.6c0,0,0-0.1-0.1-0.2C65.8,52.4,65.9,52.5,65.9,52.6L65.9,52.6z"/>
<path class="st1" d="M46.2,52.6L46.2,52.6c0.1,0.1,0.2,0.2,0.2,0.3C46.3,52.7,46.2,52.6,46.2,52.6z"/>
<path class="st1" d="M65.5,51.5L65.5,51.5c0.1,0.4,0.2,0.7,0.3,0.9C65.7,52.1,65.6,51.8,65.5,51.5z"/>
<path class="st2" d="M41.9,70.4h-7.3c1.3,1.6,2.8,2.4,4.1,2.8c1,0.3,2,0.3,2.9,0.1c0.2,0,0.5-0.1,0.7-0.1c1.7-0.4,2.9-1.3,3-1.4v0
	c0.4-0.4,0.8-0.9,1.1-1.3H41.9z"/>
<path class="st2" d="M67,57.8c-0.1-1.1-0.4-2.3-0.7-3.7c-0.1-0.5-0.3-1-0.4-1.5c0-0.1-0.1-0.2-0.1-0.2c-0.1-0.2-0.2-0.5-0.3-0.9
	c-0.5-1.4-1.7-4-3.8-7.2c0,0-1-1.4-2.1-3.1c-0.8-1.1-1.6-2.3-2.2-3.4H36.4c1.2,1.9,8,12.3,9.8,14.8l0,0c0,0,0.1,0.1,0.2,0.3
	c0.5,0.7,1.5,2.5,2.3,4.9c0.7,2.5,1.1,5.6,0,8.8c-0.2,0.5-0.4,1-0.7,1.6c-0.2,0.5-0.5,0.9-0.8,1.4c-0.2,0.3-0.4,0.6-0.6,0.9
	c-0.3,0.4-0.7,0.9-1.1,1.3c0,0,0,0,0,0l0,0c-0.2,0.1-1.3,1-3,1.4h2.9h14.6c1.7-1.1,3-2.2,3-2.2s0.3-0.2,0.6-0.5
	c0.2-0.2,0.5-0.4,0.7-0.8c0.6-0.7,1.2-1.6,1.8-2.8C66.9,64.8,67.5,61.8,67,57.8z"/>
<path d="M67.3,57.8c-0.2-1.2-0.4-2.4-0.7-3.7c-0.1-0.5-0.3-1-0.4-1.6L66,52.3c-0.1-0.2-0.2-0.5-0.3-0.9c-0.5-1.3-1.7-4-3.8-7.2
	l-2.1-3.1c-0.8-1.2-1.6-2.4-2.2-3.4l-0.1-0.1H36l0.2,0.3c1.3,2,8.1,12.3,9.8,14.8l0.1,0.1l0,0c0,0,0.1,0.1,0.2,0.2
	c0.4,0.7,1.5,2.4,2.2,4.8c0.9,3.1,0.9,6,0,8.7c-0.2,0.5-0.4,1-0.7,1.5c-0.2,0.5-0.5,0.9-0.8,1.4c-0.2,0.3-0.4,0.5-0.5,0.8H34.2
	l0.3,0.3c1.2,1.4,2.7,2.4,4.2,2.8c0.6,0.2,1.2,0.2,1.8,0.2c0.4,0,0.8,0,1.2-0.1c0.2,0,0.5-0.1,0.7-0.1h17.5l0,0c1.7-1.1,3-2.2,3-2.2
	l0,0c0,0,0.3-0.2,0.7-0.5c0.3-0.2,0.5-0.5,0.8-0.8C65,69,65.6,68,66.1,67C67.3,64.4,67.7,61.3,67.3,57.8z M38.8,73
	c-1.3-0.4-2.6-1.1-3.7-2.3h11c-0.1,0.1-0.1,0.2-0.2,0.2c0,0.1-0.1,0.1-0.1,0.2c-0.2,0.2-0.3,0.4-0.5,0.6l0,0c0,0,0,0-0.1,0.1
	c0,0,0,0,0,0c0,0-0.1,0.1-0.1,0.1c0,0,0,0-0.1,0.1c0,0-0.1,0.1-0.2,0.1c0,0-0.1,0.1-0.1,0.1c-0.1,0-0.1,0.1-0.2,0.1
	c0,0-0.1,0.1-0.2,0.1c-0.1,0-0.2,0.1-0.2,0.1c-0.1,0-0.1,0.1-0.2,0.1c-0.1,0-0.2,0.1-0.3,0.1c-0.1,0-0.1,0.1-0.2,0.1
	c-0.1,0.1-0.2,0.1-0.4,0.1c-0.1,0-0.1,0-0.2,0.1c-0.2,0.1-0.4,0.1-0.6,0.2c-0.2,0.1-0.5,0.1-0.7,0.1c-0.4,0.1-0.8,0.1-1.1,0.1
	C39.9,73.2,39.4,73.1,38.8,73z M65.8,66.8c-0.5,1-1,1.9-1.7,2.7c-0.2,0.3-0.5,0.5-0.7,0.8c-0.4,0.3-0.6,0.5-0.6,0.5
	c0,0-1.3,1.1-2.9,2.2H43.7c0.1-0.1,0.3-0.1,0.4-0.2c0,0,0,0,0,0c0.1-0.1,0.2-0.1,0.4-0.2c0,0,0.1,0,0.1-0.1c0.1-0.1,0.2-0.1,0.3-0.2
	c0,0,0,0,0,0c0.1-0.1,0.2-0.1,0.3-0.2c0,0,0,0,0,0c0.1-0.1,0.1-0.1,0.2-0.1c0,0,0,0,0,0c0,0,0.1-0.1,0.1-0.1l0,0l0,0l0.1-0.1v0
	l0.1-0.1l0,0c0.1-0.1,0.2-0.3,0.4-0.4c0-0.1,0.1-0.1,0.2-0.2c0.2-0.2,0.3-0.4,0.5-0.7l0.3-0.3h0c0.1-0.2,0.3-0.4,0.4-0.6
	c0.3-0.5,0.6-0.9,0.8-1.4c0.3-0.5,0.5-1.1,0.7-1.6c1-2.8,1-5.8,0-8.9c-0.7-2.4-1.8-4.3-2.3-4.9c-0.1-0.2-0.2-0.3-0.2-0.3l0,0
	C44.6,50,38.5,40.6,36.8,38h20.5c0.6,1,1.3,2.2,2.1,3.3l2.1,3.1c2.1,3.2,3.3,5.9,3.8,7.2c0.2,0.4,0.3,0.7,0.3,0.9l0.1,0.2
	c0.2,0.5,0.3,1,0.4,1.5c0.3,1.2,0.6,2.5,0.7,3.6C67.3,61.2,66.9,64.3,65.8,66.8z"/>
<path d="M63.3,19.8c-1.5-2-3.2-3.3-4-3.9l0,0h-18h0c-0.3,0-0.7-0.1-1-0.1h-0.1c-0.3,0-0.6,0-0.9,0.1c-3.2,0.4-5.3,2.6-6.2,3.9
	l-0.3,0.3h14c0.2,0.3,0.4,0.5,0.6,0.8c1.9,2.6,2.9,6.2,3.1,10.5l0,0.2H66l0-0.2C66.8,27.1,65.9,23.2,63.3,19.8z M39.3,16.3
	c0.3,0,0.6,0,0.8-0.1h0.1c0.3,0,0.6,0,0.9,0c0.3,0.1,0.5,0.2,0.8,0.3c0.1,0,0.2,0.1,0.3,0.1c0.2,0.1,0.3,0.1,0.5,0.2
	c0.1,0,0.2,0.1,0.3,0.1c0.2,0.1,0.3,0.1,0.5,0.2c0.1,0.1,0.2,0.1,0.3,0.2c0.1,0.1,0.3,0.2,0.4,0.3c0.1,0.1,0.2,0.1,0.3,0.2
	c0.1,0.1,0.3,0.2,0.4,0.3c0.1,0.1,0.2,0.1,0.3,0.2c0.1,0.1,0.2,0.2,0.3,0.3c0.1,0.1,0.2,0.2,0.3,0.2c0.1,0.1,0.2,0.2,0.3,0.3
	c0.1,0.1,0.2,0.2,0.3,0.3c0,0,0.1,0.1,0.1,0.1H33.7C34.7,18.5,36.5,16.7,39.3,16.3z M65.7,31.2H51c-0.2-4.3-1.3-7.9-3.2-10.5
	c-0.1-0.2-0.3-0.4-0.4-0.5h0l-0.3-0.4c-0.2-0.2-0.4-0.4-0.5-0.6c-0.1-0.1-0.1-0.1-0.2-0.2c-0.1-0.1-0.3-0.3-0.4-0.4
	c-0.1-0.1-0.2-0.1-0.2-0.2c-0.1-0.1-0.3-0.2-0.4-0.3c-0.1-0.1-0.2-0.1-0.2-0.2c-0.2-0.1-0.3-0.2-0.5-0.3c-0.1,0-0.1-0.1-0.2-0.1
	c-0.2-0.1-0.4-0.3-0.7-0.4c0,0,0,0,0,0c-0.2-0.1-0.5-0.3-0.7-0.4c-0.1,0-0.1-0.1-0.2-0.1c-0.1-0.1-0.3-0.1-0.4-0.2h16.7
	c0.9,0.6,2.5,1.8,3.9,3.7C65.5,23.3,66.4,27.1,65.7,31.2z"/>
</svg>
